<svg
  xmlns="http://www.w3.org/2000/svg"
  width="640"
  height="480"
  font-size="22px"
  role="img"
  aria-label="Venn diagram of a nerd"
>
  <circle
    r="40"
    fill="#0ff"
    fill-opacity="0.5"
    transform="matrix(3.53 0 0 3.53 141.2 141.2)"
  />
  <circle
    r="40"
    fill="#f0c"
    fill-opacity="0.5"
    transform="matrix(3.54 0 0 3.54 340.6 145.4)"
  />
  <circle
    r="40"
    fill="#ff0"
    fill-opacity="0.5"
    transform="matrix(3.54 0 0 3.54 246.6 306.83)"
  />
  <text transform="matrix(.71 -.71 .71 .71 97.11 122.28)">
    <tspan x="-51.92" y="6.91">Intelligence</tspan>
  </text>
  <text transform="matrix(.71 .71 -.71 .71 391.99 136.84)">
    <tspan x="-85.78" y="6.91">Social ineptitude</tspan>
  </text>
  <text transform="translate(245.23 348.68)">
    <tspan x="-51.92" y="6.91">Obsession</tspan>
  </text>
  <text transform="translate(264.22 131.84)">
    <tspan x="-51.92" y="6.91">Dweeb</tspan>
  </text>
  <text transform="rotate(32.9 -252.40416 702.82346)">
    <tspan x="-51.92" y="6.91">Dork</tspan>
  </text>
  <text transform="matrix(.84 -.55 .55 .84 194.28 220.78)">
    <tspan x="-51.92" y="6.91">Geek</tspan>
  </text>
  <text transform="translate(270.21 196.79)">
    <tspan x="-51.92" y="6.91">Nerd</tspan>
  </text>
</svg>
