<?xml version="1.0" standalone="no"?>
<!DOCTYPE svg PUBLIC "-//W3C//DTD SVG 20010904//EN"
 "http://www.w3.org/TR/2001/REC-SVG-20010904/DTD/svg10.dtd">
<svg version="1.0" xmlns="http://www.w3.org/2000/svg"
 width="512.000000pt" height="512.000000pt" viewBox="0 0 512.000000 512.000000"
 preserveAspectRatio="xMidYMid meet">
<metadata>
Created by potrace 1.14, written by Peter Selinger 2001-2017
</metadata>
<g transform="translate(0.000000,512.000000) scale(0.100000,-0.100000)"
fill="#000000" stroke="none">
<path d="M2743 4292 c-55 -20 -113 -55 -466 -284 -463 -300 -753 -524 -1252
-967 -381 -339 -412 -375 -422 -492 -5 -53 -4 -59 22 -83 55 -51 118 -65 287
-64 169 1 255 -13 389 -62 126 -46 440 -197 493 -238 62 -47 103 -119 120
-211 16 -84 38 -119 134 -214 l68 -68 82 126 c46 71 91 130 105 136 20 9 38 4
126 -41 56 -28 101 -54 99 -58 -2 -4 -95 -93 -208 -197 -911 -843 -952 -883
-992 -973 -16 -35 -52 -260 -44 -269 4 -4 187 47 207 58 24 13 141 115 405
355 319 292 398 353 1164 904 707 509 884 646 1094 850 189 183 454 467 478
513 17 32 22 59 23 117 0 65 -4 84 -32 140 -70 141 -188 249 -321 290 -132 42
-221 40 -910 -21 -188 -17 -349 -29 -356 -27 -10 2 1 42 45 153 69 178 83 237
77 325 -6 80 -33 135 -102 208 -93 99 -205 133 -313 94z m97 -300 l23 -19 -43
-114 c-23 -63 -67 -166 -97 -229 -31 -63 -62 -132 -69 -154 -60 -166 70 -343
236 -323 25 4 151 20 280 36 244 31 450 51 775 76 l190 15 92 -46 92 -46 -25
-66 c-14 -37 -32 -77 -40 -89 -31 -48 -1052 -909 -1064 -897 -4 5 -73 113
-154 240 -173 275 -275 420 -350 502 -67 72 -308 272 -328 272 -31 0 -138 -63
-173 -102 -47 -51 -76 -114 -115 -251 -34 -118 -65 -197 -77 -197 -4 0 -62 92
-128 205 -66 112 -123 204 -127 205 -4 0 -16 -26 -28 -57 -30 -81 -24 -192 19
-328 18 -55 35 -126 38 -158 l6 -58 -29 11 c-16 7 -177 66 -359 132 -181 66
-341 125 -355 130 l-25 10 36 31 c413 365 433 382 614 528 347 282 699 520
1065 722 75 41 90 44 120 19z m-214 -1530 l221 -357 -149 -3 c-145 -2 -150 -2
-224 28 -105 42 -159 83 -189 144 -31 62 -32 121 -5 234 22 93 110 326 119
316 3 -3 105 -166 227 -362z"/>
</g>
</svg>
